<?xml version="1.0" standalone="no"?>
<!DOCTYPE svg PUBLIC "-//W3C//DTD SVG 20010904//EN"
 "http://www.w3.org/TR/2001/REC-SVG-20010904/DTD/svg10.dtd">
<svg version="1.0" xmlns="http://www.w3.org/2000/svg"
 width="134.000000pt" height="134.000000pt" viewBox="0 0 134.000000 134.000000"
 preserveAspectRatio="xMidYMid meet">
<metadata>
Created by potrace 1.11, written by Peter Selinger 2001-2013
</metadata>
<g transform="translate(0.000000,134.000000) scale(0.100000,-0.100000)"
fill="#000000" stroke="none">
<path d="M690 1134 c0 -8 5 -12 10 -9 6 4 8 11 5 16 -9 14 -15 11 -15 -7z"/>
<path d="M743 1110 c1 -11 7 -20 14 -20 7 0 13 9 13 20 0 11 -6 20 -14 20 -9
0 -14 -9 -13 -20z"/>
<path d="M597 1102 c4 -8 0 -10 -11 -6 -11 4 -16 1 -16 -10 0 -9 6 -16 14 -16
8 0 17 -6 19 -12 4 -8 8 -4 12 9 4 13 11 20 16 17 5 -3 9 3 9 13 0 12 -8 18
-24 18 -15 0 -22 -5 -19 -13z"/>
<path d="M660 1106 c0 -9 7 -16 16 -16 17 0 14 22 -4 28 -7 2 -12 -3 -12 -12z"/>
<path d="M415 1100 c-3 -5 -1 -10 4 -10 6 0 11 5 11 10 0 6 -2 10 -4 10 -3 0
-8 -4 -11 -10z"/>
<path d="M824 1089 c-8 -14 14 -29 33 -22 10 4 11 9 2 19 -14 17 -25 18 -35 3z"/>
<path d="M489 1036 c-12 -24 -28 -42 -34 -39 -7 2 -18 -3 -25 -12 -10 -12 -10
-18 0 -30 13 -15 3 -20 -15 -7 -21 15 -15 40 14 53 33 15 56 45 41 54 -6 3
-10 1 -10 -4 0 -6 -7 -11 -15 -11 -8 0 -24 -9 -34 -19 -14 -14 -21 -16 -25 -8
-3 8 -5 6 -5 -3 -1 -12 -3 -13 -10 -1 -6 10 -10 10 -16 1 -4 -7 1 -13 14 -17
17 -4 19 -9 10 -25 -12 -22 0 -37 31 -39 9 0 11 -2 3 -5 -7 -3 -20 -1 -30 4
-10 5 -27 6 -38 2 l-20 -8 20 -8 c11 -4 26 -14 33 -21 11 -11 11 -13 -2 -13
-9 0 -16 4 -16 9 0 5 -14 8 -30 7 -21 0 -29 -5 -25 -14 3 -8 5 -16 5 -18 0
-10 29 -3 32 8 3 7 7 4 10 -7 3 -11 1 -29 -3 -40 -7 -19 -8 -19 -8 1 -1 13
-10 24 -23 29 -46 15 -48 14 -35 -5 6 -10 14 -17 17 -15 3 2 12 0 20 -6 13 -7
12 -9 -2 -9 -12 0 -15 -5 -11 -17 5 -11 3 -14 -6 -8 -7 4 -5 -5 5 -21 l18 -29
-22 19 c-28 24 -39 14 -24 -19 15 -32 15 -38 2 -30 -5 3 -7 0 -4 -8 3 -8 -2
-17 -10 -20 -9 -4 -16 -11 -16 -17 0 -6 6 -8 13 -5 6 4 3 -1 -8 -10 -16 -12
-17 -19 -8 -33 6 -9 16 -16 22 -15 6 2 9 -9 7 -27 -2 -16 0 -27 4 -25 10 6 34
-23 35 -44 1 -10 -6 -18 -17 -18 -10 -1 -18 2 -18 8 0 5 4 9 8 9 5 0 9 7 9 15
0 20 -4 19 -30 -6 -15 -15 -18 -23 -9 -26 6 -3 12 -11 12 -19 0 -8 5 -14 10
-14 6 0 10 5 10 11 0 6 7 9 15 5 10 -3 17 3 21 20 5 19 9 23 18 13 8 -8 8 -13
-1 -16 -7 -2 -9 -11 -6 -19 3 -8 0 -21 -7 -29 -11 -13 -7 -15 21 -15 29 -1 32
-2 18 -13 -9 -7 -16 -27 -17 -44 -1 -29 2 -32 18 -23 10 5 21 15 23 22 3 8 6
5 6 -6 1 -13 6 -17 21 -13 11 3 18 1 14 -4 -3 -5 -11 -9 -18 -9 -8 0 -16 -9
-19 -20 -6 -23 8 -27 17 -5 3 8 15 15 26 15 11 0 20 5 20 11 0 5 4 8 9 5 5 -3
7 -16 3 -29 -5 -20 -4 -21 13 -7 11 9 16 10 11 2 -4 -7 -1 -19 8 -27 8 -9 13
-23 10 -33 -4 -10 -3 -13 3 -6 24 32 93 39 93 9 0 -9 12 -13 31 -13 17 1 35
-5 39 -13 5 -7 12 -10 16 -6 4 4 3 12 -3 18 -22 22 -4 38 28 27 28 -9 40 -28
19 -28 -5 0 -10 -5 -10 -11 0 -8 4 -8 14 0 11 9 15 9 20 -1 4 -9 5 -9 5 2 -3
35 1 41 21 35 12 -4 20 -2 20 5 0 8 -11 11 -29 8 -17 -2 -28 -1 -25 3 2 4 -2
9 -8 12 -7 3 3 4 22 3 19 0 41 -7 48 -14 16 -15 32 -16 32 -1 0 5 -5 7 -10 4
-5 -3 -10 1 -10 9 0 9 6 13 14 10 17 -7 55 12 79 39 11 13 17 15 17 7 0 -7 -8
-22 -17 -33 -17 -19 -17 -19 5 -13 14 5 22 3 22 -5 0 -7 3 -9 6 -6 4 4 2 12
-3 19 -6 8 -7 22 -2 33 6 17 8 17 8 3 1 -19 31 -26 31 -8 0 6 7 10 15 10 8 0
15 5 15 11 0 6 -8 8 -18 5 -13 -4 -19 -1 -19 9 0 9 6 14 14 11 7 -3 13 0 13 6
0 15 31 37 53 38 12 0 17 8 17 29 0 17 5 33 11 37 20 12 -13 23 -35 12 -19
-10 -20 -10 -7 6 8 9 20 15 28 12 9 -4 11 -1 7 6 -11 17 -13 58 -3 58 4 0 6 8
2 18 -5 14 -3 13 10 -3 8 -11 19 -17 23 -12 4 4 2 7 -5 7 -7 0 -9 5 -6 10 4 6
11 7 17 4 7 -5 9 -2 6 7 -3 8 -2 23 2 34 5 12 2 26 -6 36 -11 12 -12 23 -5 41
5 14 5 30 0 40 -12 21 9 37 22 17 5 -8 9 -9 9 -3 0 6 -6 17 -14 24 -8 6 -12
19 -9 28 4 13 2 12 -10 -3 -8 -11 -13 -23 -11 -27 3 -5 0 -8 -6 -8 -8 0 -8 -6
0 -22 11 -22 10 -22 -4 -4 -9 11 -16 25 -16 32 0 7 -3 20 -7 30 -4 11 -3 15 5
10 6 -3 13 -2 16 3 11 17 -11 21 -24 6 -11 -14 -15 -13 -31 4 -24 25 -24 42
-1 35 9 -2 2 3 -15 12 -18 10 -33 21 -33 25 0 4 -8 5 -19 2 -10 -3 -22 0 -25
6 -4 7 -1 9 8 5 8 -3 19 -3 24 0 13 8 -1 71 -16 72 -7 1 -16 2 -20 3 -4 0 -8
13 -7 27 0 30 -32 43 -50 21 -5 -7 -16 -12 -22 -12 -7 0 -13 -3 -13 -7 0 -5 0
-15 0 -24 0 -11 5 -14 18 -9 13 5 14 3 5 -5 -8 -9 -16 -9 -30 -1 -10 6 -15 11
-10 11 4 0 0 14 -8 30 -9 17 -20 28 -25 25 -15 -9 -12 -25 4 -25 10 0 12 -7 8
-22 l-5 -22 -9 23 c-6 17 -13 21 -28 16 -15 -5 -18 -3 -14 9 3 9 2 16 -4 16
-5 0 -12 -7 -16 -15 -8 -21 -24 -19 -31 5 -7 23 -30 27 -39 5 -3 -9 -12 -12
-22 -8 -12 4 -15 3 -10 -5 4 -8 2 -10 -8 -6 -8 3 -16 -2 -19 -13 -4 -16 -5
-16 -6 0 0 9 -4 17 -8 18 -5 0 -19 3 -33 5 -24 4 -24 4 -5 -11 20 -16 19 -16
-4 -9 -15 4 -27 1 -32 -7 -6 -10 -9 -10 -9 -2 0 6 5 15 10 18 12 8 13 35 1 35
-4 0 -19 -20 -32 -44z m425 13 c-3 -5 -1 -9 4 -9 6 0 8 -9 5 -20 -4 -14 0 -20
11 -20 22 0 20 -13 -4 -27 -16 -11 -18 -10 -14 2 4 8 -1 17 -9 21 -9 3 -15 18
-14 39 1 23 5 31 14 28 7 -3 10 -9 7 -14z m-91 -99 c94 -45 159 -131 175 -232
21 -143 -43 -268 -173 -336 -42 -22 -63 -26 -135 -26 -69 -1 -94 4 -132 23
-258 127 -238 487 32 585 62 23 170 16 233 -14z m-516 -276 c-3 -3 -12 -4 -19
-1 -8 3 -5 6 6 6 11 1 17 -2 13 -5z m-25 -46 c-6 -6 -15 -8 -19 -4 -4 4 -1 11
7 16 19 12 27 3 12 -12z m23 -18 c3 -5 1 -10 -4 -10 -6 0 -11 5 -11 10 0 6 2
10 4 10 3 0 8 -4 11 -10z m752 -149 c10 -16 9 -20 -8 -24 -10 -3 -19 -1 -19 4
0 5 5 9 11 9 8 0 8 5 -1 15 -7 8 -8 15 -4 15 5 0 15 -9 21 -19z m-472 -161
c-3 -5 -11 -10 -16 -10 -6 0 -7 5 -4 10 3 6 11 10 16 10 6 0 7 -4 4 -10z m65
-14 c0 -2 -8 -10 -17 -17 -16 -13 -17 -12 -4 4 13 16 21 21 21 13z"/>
<path d="M965 1060 c-3 -5 -1 -10 4 -10 6 0 11 5 11 10 0 6 -2 10 -4 10 -3 0
-8 -4 -11 -10z"/>
<path d="M350 1050 c0 -5 5 -10 11 -10 5 0 7 5 4 10 -3 6 -8 10 -11 10 -2 0
-4 -4 -4 -10z"/>
<path d="M1067 1003 c-11 -10 -8 -35 3 -28 6 4 8 10 5 15 -3 4 1 11 7 13 7 3
8 6 2 6 -6 1 -14 -2 -17 -6z"/>
<path d="M322 978 c7 -19 38 -22 38 -4 0 10 -9 16 -21 16 -12 0 -19 -5 -17
-12z"/>
<path d="M1010 965 c10 -12 9 -15 -4 -15 -10 0 -14 -5 -11 -10 10 -16 35 8 28
26 -3 8 -10 14 -15 14 -6 0 -5 -6 2 -15z"/>
<path d="M247 924 c-8 -8 1 -24 14 -24 5 0 9 7 9 15 0 15 -12 20 -23 9z"/>
<path d="M305 920 c3 -5 8 -10 11 -10 2 0 4 5 4 10 0 6 -5 10 -11 10 -5 0 -7
-4 -4 -10z"/>
<path d="M1046 918 c3 -5 10 -6 15 -3 13 9 11 12 -6 12 -8 0 -12 -4 -9 -9z"/>
<path d="M1095 880 c21 -24 26 -25 19 -6 -3 8 -13 17 -22 21 -13 5 -13 2 3
-15z"/>
<path d="M235 830 c-3 -5 -1 -10 4 -10 6 0 11 5 11 10 0 6 -2 10 -4 10 -3 0
-8 -4 -11 -10z"/>
<path d="M245 790 c3 -5 8 -10 11 -10 2 0 4 5 4 10 0 6 -5 10 -11 10 -5 0 -7
-4 -4 -10z"/>
<path d="M215 761 c3 -5 1 -12 -5 -16 -17 -10 -11 -25 10 -25 11 0 20 -7 20
-15 0 -8 5 -15 11 -15 13 0 2 53 -12 58 -5 2 -7 8 -3 13 3 5 -2 9 -11 9 -9 0
-14 -4 -10 -9z"/>
<path d="M1150 760 c0 -5 7 -10 15 -10 8 0 15 5 15 10 0 6 -7 10 -15 10 -8 0
-15 -4 -15 -10z"/>
<path d="M1143 724 c0 -8 6 -14 14 -14 7 0 13 4 13 9 0 5 -6 11 -13 14 -8 3
-14 -1 -14 -9z"/>
<path d="M215 660 c-3 -5 -1 -10 4 -10 6 0 11 5 11 10 0 6 -2 10 -4 10 -3 0
-8 -4 -11 -10z"/>
<path d="M190 620 c0 -5 5 -10 10 -10 6 0 10 5 10 10 0 6 -4 10 -10 10 -5 0
-10 -4 -10 -10z"/>
<path d="M227 575 c-10 -7 -15 -19 -11 -29 9 -25 26 -19 19 7 -6 21 -6 21 9 3
16 -19 16 -19 16 1 0 28 -11 34 -33 18z"/>
<path d="M1094 568 c-4 -6 -3 -8 4 -4 6 3 13 2 17 -4 4 -6 11 -8 16 -4 5 3 7
10 4 15 -8 13 -32 11 -41 -3z"/>
<path d="M1104 485 c-18 -14 -18 -14 9 -15 15 0 27 4 27 9 0 18 -17 20 -36 6z"/>
<path d="M220 480 c0 -13 18 -22 24 -11 3 5 -1 11 -9 15 -8 3 -15 1 -15 -4z"/>
<path d="M255 440 c-3 -5 -1 -10 4 -10 6 0 11 5 11 10 0 6 -2 10 -4 10 -3 0
-8 -4 -11 -10z"/>
<path d="M293 432 c-8 -5 -9 -13 -3 -22 6 -10 13 -11 19 -5 13 13 -1 36 -16
27z"/>
<path d="M1050 399 c0 -5 5 -7 10 -4 6 3 10 8 10 11 0 2 -4 4 -10 4 -5 0 -10
-5 -10 -11z"/>
<path d="M270 390 c0 -5 5 -10 11 -10 5 0 7 5 4 10 -3 6 -8 10 -11 10 -2 0 -4
-4 -4 -10z"/>
<path d="M1020 388 c0 -22 17 -42 24 -29 4 6 2 11 -4 11 -6 0 -9 4 -5 9 3 5 1
12 -5 16 -5 3 -10 0 -10 -7z"/>
<path d="M335 310 c3 -5 8 -10 11 -10 2 0 4 5 4 10 0 6 -5 10 -11 10 -5 0 -7
-4 -4 -10z"/>
<path d="M865 291 c-6 -11 9 -23 19 -14 9 9 7 23 -3 23 -6 0 -12 -4 -16 -9z"/>
<path d="M470 280 c0 -5 5 -10 10 -10 6 0 10 5 10 10 0 6 -4 10 -10 10 -5 0
-10 -4 -10 -10z"/>
<path d="M965 280 c-3 -5 -1 -10 4 -10 6 0 11 5 11 10 0 6 -2 10 -4 10 -3 0
-8 -4 -11 -10z"/>
<path d="M912 271 c4 -13 18 -16 19 -4 0 4 -5 9 -11 12 -7 2 -11 -2 -8 -8z"/>
<path d="M571 230 c-1 -19 4 -26 19 -27 11 -1 20 4 20 13 0 8 -6 14 -14 14 -8
0 -17 6 -19 13 -3 6 -6 1 -6 -13z"/>
<path d="M792 233 c5 -7 14 -10 19 -7 16 10 9 23 -10 21 -15 -1 -17 -4 -9 -14z"/>
</g>
</svg>
