<?xml version="1.0" encoding="UTF-8"?>
<svg width="29px" height="29px" viewBox="0 0 29 29" version="1.1" xmlns="http://www.w3.org/2000/svg" xmlns:xlink="http://www.w3.org/1999/xlink">
    <!-- Generator: Sketch 47.1 (45422) - http://www.bohemiancoding.com/sketch -->
    <title>Facebook</title>
    <desc>Created with Sketch.</desc>
    <defs></defs>
    <g id="HP" stroke="none" stroke-width="1" fill="none" fill-rule="evenodd">
        <g transform="translate(-765.000000, -5285.000000)" id="Social" fill="#FFFFFF">
            <g transform="translate(765.000000, 5284.000000)">
                <g id="Facebook" transform="translate(0.000000, 1.000000)">
                    <path d="M14.5,29 C6.49187113,29 0,22.5081289 0,14.5 C0,6.49187113 6.49187113,0 14.5,0 C22.5081289,0 29,6.49187113 29,14.5 C29,22.5081289 22.5081289,29 14.5,29 Z M12.5068254,21.5578458 L15.1477587,21.5578458 L15.1477587,14.3038996 L17.1289421,14.3038996 L17.5207643,12.0373035 L15.1477587,12.0373035 L15.1477587,10.3948519 C15.1477587,9.86537732 15.4901198,9.30945326 15.9794143,9.30945326 L17.3280754,9.30945326 L17.3280754,7.04285714 L15.6752365,7.04285714 L15.6752365,7.05301763 C13.089081,7.14688123 12.5577365,8.64466678 12.5116587,10.2179303 L12.5068254,10.2179303 L12.5068254,12.0373035 L11.1857143,12.0373035 L11.1857143,14.3038996 L12.5068254,14.3038996 L12.5068254,21.5578458 Z" id="Combined-Shape"></path>
                </g>
            </g>
        </g>
    </g>
</svg>