<?xml version="1.0" encoding="UTF-8"?>
<svg width="29px" height="29px" viewBox="0 0 29 29" version="1.1" xmlns="http://www.w3.org/2000/svg" xmlns:xlink="http://www.w3.org/1999/xlink">
    <!-- Generator: Sketch 47.1 (45422) - http://www.bohemiancoding.com/sketch -->
    <title>Linkedin</title>
    <desc>Created with Sketch.</desc>
    <defs></defs>
    <g id="HP" stroke="none" stroke-width="1" fill="none" fill-rule="evenodd">
        <g transform="translate(-806.000000, -5285.000000)" id="Social" fill="#FFFFFF">
            <g transform="translate(765.000000, 5284.000000)">
                <g id="Linkedin" transform="translate(41.000000, 1.000000)">
                    <path d="M14.5,29 C6.49187113,29 0,22.5081289 0,14.5 C0,6.49187113 6.49187113,0 14.5,0 C22.5081289,0 29,6.49187113 29,14.5 C29,22.5081289 22.5081289,29 14.5,29 Z M8.85132937,10.75769 C9.84957381,10.75769 10.6588349,10.0196835 10.6588349,9.10830345 C10.6588349,8.19611706 9.84957381,7.45714286 8.85132937,7.45714286 C7.85211825,7.45714286 7.04285714,8.19611706 7.04285714,9.10830345 C7.04285714,10.0196835 7.85211825,10.75769 8.85132937,10.75769 Z M7.45714286,21.3679057 L10.7003095,21.3679057 L10.7003095,12.0142857 L7.45714286,12.0142857 L7.45714286,21.3679057 Z M15.2521357,16.165609 C15.2521357,15.0929514 15.7596357,14.0440015 16.9731246,14.0440015 C18.1866135,14.0440015 18.4849913,15.0929514 18.4849913,16.1399659 L18.4849913,21.2484355 L21.7136579,21.2484355 L21.7136579,15.9311113 C21.7136579,12.2368854 19.5299579,11.6 18.1866135,11.6 C16.8443968,11.6 16.1040913,12.0539966 15.2521357,13.1540714 L15.2521357,11.8948155 L12.0142857,11.8948155 L12.0142857,21.2484355 L15.2521357,21.2484355 L15.2521357,16.165609 Z" id="Combined-Shape"></path>
                </g>
            </g>
        </g>
    </g>
</svg>