<?xml version="1.0" encoding="UTF-8"?>
<svg width="29px" height="29px" viewBox="0 0 29 29" version="1.1" xmlns="http://www.w3.org/2000/svg" xmlns:xlink="http://www.w3.org/1999/xlink">
    <!-- Generator: Sketch 47.1 (45422) - http://www.bohemiancoding.com/sketch -->
    <title>Twitter</title>
    <desc>Created with Sketch.</desc>
    <defs></defs>
    <g id="HP" stroke="none" stroke-width="1" fill="none" fill-rule="evenodd">
        <g transform="translate(-847.000000, -5284.000000)" id="Social" fill="#FFFFFF">
            <g transform="translate(765.000000, 5284.000000)">
                <g id="Twitter" transform="translate(82.000000, 0.000000)">
                    <path d="M14.5,29 C6.49187113,29 0,22.5081289 0,14.5 C0,6.49187113 6.49187113,0 14.5,0 C22.5081289,0 29,6.49187113 29,14.5 C29,22.5081289 22.5081289,29 14.5,29 Z M21.1418838,8.95401238 C20.7326156,9.21616317 19.7929419,9.59710349 19.3295219,9.59710349 L19.3295219,9.59788603 C18.8003686,9.0451 18.0553908,8.7 17.2291854,8.7 C15.6245095,8.7 14.3233025,10.001207 14.3233025,11.6052568 C14.3233025,11.8281241 14.3491263,12.0455137 14.3968613,12.2539822 L14.3963917,12.2539822 C12.2196794,12.1968568 9.83903714,11.10584 8.40589397,9.23854381 C7.52475429,10.7637137 8.28726095,12.4599467 9.28719016,13.0779965 C8.9449073,13.1038203 8.31480635,13.0385565 8.01822381,12.7491733 C7.9983473,13.7614667 8.48508698,15.1027397 10.259887,15.5893229 C9.91807365,15.7732197 9.31301397,15.7204765 9.04992413,15.6813495 C9.14226381,16.5358829 10.3389235,17.6530365 11.6474863,17.6530365 C11.1810927,18.1925194 9.42632571,19.171007 7.45714286,18.8597127 C8.79450317,19.6733975 10.3531657,20.1446429 12.0029159,20.1446429 C16.6911111,20.1446429 20.3319552,16.3450997 20.1360073,11.6578435 C20.1352248,11.6526787 20.1352248,11.647514 20.1347552,11.6418797 C20.1352248,11.6298286 20.1360073,11.6177775 20.1360073,11.6052568 C20.1360073,11.5907016 20.1347552,11.5769289 20.1342857,11.5628432 C20.5610829,11.2709559 21.1337454,10.7546362 21.5428571,10.0750787 C21.3055911,10.2057629 20.593793,10.4674441 19.9314514,10.5323949 C20.356527,10.3029543 20.9863149,9.55155968 21.1418838,8.95401238 Z" id="Combined-Shape"></path>
                </g>
            </g>
        </g>
    </g>
</svg>