<?xml version="1.0" encoding="utf-8"?>
<!-- Generator: Adobe Illustrator 23.0.3, SVG Export Plug-In . SVG Version: 6.00 Build 0)  -->
<svg version="1.1" id="Layer_1" xmlns="http://www.w3.org/2000/svg" xmlns:xlink="http://www.w3.org/1999/xlink" x="0px" y="0px"
	 viewBox="0 0 56 56" style="enable-background:new 0 0 56 56;" xml:space="preserve">
<style type="text/css">
	.st0{fill:#FFFFFF;}
	.st1{fill-rule:evenodd;clip-rule:evenodd;fill:#FFFFFF;}
</style>
<title>Icon/context-aware</title>
<desc>Created with Sketch.</desc>
<g>
	<g id="noun_Light-Bulb_1232637_000000" transform="translate(2.000000, 0.000000)">
		<path id="Shape" class="st0" d="M26,12.7c-7.6,0-13.8,6.2-13.8,13.8c0,5.4,3.1,10,7.7,12.3v10.7c0,3.4,2.7,6.1,6.1,6.1
			s6.1-2.7,6.1-6.1V38.7c4.5-2.3,7.7-6.9,7.7-12.3C39.8,18.9,33.6,12.7,26,12.7z M29.1,49.4c0,1.7-1.4,3.1-3.1,3.1S23,51.1,23,49.4
			v-9.5c1,0.2,2,0.4,3.1,0.4s2.1-0.1,3.1-0.4V49.4z M26,37.2c-5.9,0-10.7-4.8-10.7-10.7S20.1,15.8,26,15.8s10.7,4.8,10.7,10.7
			S31.9,37.2,26,37.2z"/>
		<path id="Path" class="st1" d="M9.2,26.5c0-0.8-0.7-1.5-1.5-1.5H1.5c-0.8,0-1.5,0.7-1.5,1.5S0.7,28,1.5,28h6.1
			C8.5,28,9.2,27.3,9.2,26.5z"/>
		<path class="st1" d="M50.5,24.9h-6.1c-0.8,0-1.5,0.7-1.5,1.5s0.7,1.5,1.5,1.5h6.1c0.8,0,1.5-0.7,1.5-1.5S51.4,24.9,50.5,24.9z"/>
		<path class="st1" d="M24.5,2v6.1c0,0.8,0.7,1.5,1.5,1.5s1.5-0.7,1.5-1.5V2c0-0.8-0.7-1.5-1.5-1.5S24.5,1.2,24.5,2z"/>
		<path class="st1" d="M37,4.5l-3.1,5.3c-0.4,0.7-0.2,1.7,0.6,2.1c0.2,0.1,0.5,0.2,0.8,0.2c0.5,0,1-0.3,1.3-0.8l3.1-5.3
			C40,5.3,39.8,4.4,39.1,4C38.3,3.5,37.4,3.8,37,4.5z"/>
		<path class="st1" d="M10.9,16l-5.3-3.1c-0.7-0.4-1.7-0.2-2.1,0.6c-0.4,0.7-0.2,1.7,0.6,2.1l5.3,3.1c0.2,0.1,0.5,0.2,0.8,0.2
			c0.5,0,1-0.3,1.3-0.8C11.9,17.3,11.6,16.4,10.9,16z"/>
		<path class="st1" d="M48,37.4l-5.3-3.1c-0.7-0.4-1.7-0.2-2.1,0.6c-0.4,0.7-0.2,1.7,0.6,2.1l5.3,3.1c0.2,0.1,0.5,0.2,0.8,0.2
			c0.5,0,1-0.3,1.3-0.8C49,38.7,48.8,37.8,48,37.4z"/>
		<path class="st1" d="M13,4c-0.7,0.4-1,1.4-0.6,2.1l3.1,5.3c0.3,0.5,0.8,0.8,1.3,0.8c0.3,0,0.5-0.1,0.8-0.2c0.7-0.4,1-1.4,0.6-2.1
			l-3.1-5.3C14.7,3.8,13.7,3.5,13,4z"/>
		<path class="st1" d="M9.4,34.3L4,37.4c-0.7,0.4-1,1.4-0.6,2.1c0.3,0.5,0.8,0.8,1.3,0.8c0.3,0,0.5-0.1,0.8-0.2l5.3-3.1
			c0.7-0.4,1-1.4,0.6-2.1C11,34.1,10.1,33.9,9.4,34.3z"/>
		<path class="st1" d="M42,18.8c0.3,0,0.5-0.1,0.8-0.2l5.3-3.1c0.7-0.4,1-1.4,0.6-2.1s-1.4-1-2.1-0.6L41.2,16
			c-0.7,0.4-1,1.4-0.6,2.1C40.9,18.6,41.4,18.8,42,18.8z"/>
	</g>
</g>
</svg>
