<svg xmlns="http://www.w3.org/2000/svg" viewBox="0 0 50.317 41.311">
  <g id="Icon_natural" data-name="Icon/natural" transform="translate(-2.407 -7.058)">
    <g id="noun_interactivity_328011_000000" transform="translate(2 7)">
      <path id="Shape" d="M25.333,41.311A14.659,14.659,0,0,1,10.691,26.669a13.691,13.691,0,0,1,.348-3.137H0V0H23.474V12.085l.169-.015c.543-.05,1.105-.1,1.69-.1A14.569,14.569,0,0,1,33.264,14.3a14.871,14.871,0,0,1,5.316,6.035l11.737-6.8V40.9l-12.26-6.972a14.581,14.581,0,0,1-12.724,7.379Zm-11.8-17.78a11.018,11.018,0,0,0-.407,3.137,12.223,12.223,0,0,0,22.835,6.043l-9.355-5.346,9.819-5.752a12.192,12.192,0,0,0-11.1-7.147,9.752,9.752,0,0,0-1.859.116v8.948ZM37.244,24l-5.694,3.312,5.462,3.079c.03-.15.076-.3.116-.436s.086-.286.116-.436v-.059a8.96,8.96,0,0,0,.288-1.711l0-.019v-.187a2.275,2.275,0,0,0-.116-.872V25.391a1.059,1.059,0,0,0-.029-.2v-.006l0-.018,0-.007,0-.008a1.046,1.046,0,0,1-.022-.17V24.81a1.291,1.291,0,0,0-.058-.465V24.17A.212.212,0,0,1,37.244,24ZM21.033,7.96h0L7.554,21.033h4.241a14.593,14.593,0,0,1,3.624-5.163,15.063,15.063,0,0,1,5.5-3.2l.116-.116V7.961ZM18.244,2.44h0L2.44,18.186v2.847H4.067L21.091,4.474V2.44Zm-8.134,0h0L2.44,10.11V14.7L14.758,2.44H10.11Zm-7.67,0V6.624L6.682,2.44Z" transform="translate(0.407 0.058)"/>
    </g>
  </g>
</svg>
