<svg xmlns="http://www.w3.org/2000/svg" viewBox="0 0 49.883 50">
  <defs>
    <style>
      .cls-1 {
        fill: none;
        stroke: #032225;
        stroke-miterlimit: 10;
        stroke-width: 2px;
      }
    </style>
  </defs>
  <g id="Icon_implentation" data-name="Icon/implentation" transform="translate(-3 -3)">
    <path id="Combined_Shape" data-name="Combined Shape" class="cls-1" d="M14.317,26.825H12.605a1.544,1.544,0,0,1-1.526-1.28l-.354-2.007a10.481,10.481,0,0,1-2.534-1.059L6.514,23.652a1.554,1.554,0,0,1-1.968-.172l-1.21-1.207a1.545,1.545,0,0,1-.172-1.963L4.33,18.643a10.383,10.383,0,0,1-1.033-2.5l-2.012-.353A1.542,1.542,0,0,1,0,14.252v-1.7a1.544,1.544,0,0,1,1.284-1.521L3.3,10.676A10.391,10.391,0,0,1,4.33,8.183L3.173,6.491a1.545,1.545,0,0,1,.172-1.963l1.226-1.2a1.552,1.552,0,0,1,1.967-.172L8.216,4.327a10.478,10.478,0,0,1,2.51-1.04l.349-2.006A1.545,1.545,0,0,1,12.6,0h1.707a1.546,1.546,0,0,1,1.526,1.281l.355,2.006A10.484,10.484,0,0,1,18.7,4.327l1.7-1.183a1.552,1.552,0,0,1,1.967.172l1.206,1.221A1.545,1.545,0,0,1,23.739,6.5L22.563,8.173a10.368,10.368,0,0,1,1.043,2.5l2.008.363A1.544,1.544,0,0,1,26.9,12.56v1.722A1.544,1.544,0,0,1,25.614,15.8l-2.012.353a10.38,10.38,0,0,1-1.043,2.5l1.175,1.673a1.544,1.544,0,0,1-.172,1.963L22.352,23.5a1.553,1.553,0,0,1-1.967.171L18.707,22.5a10.473,10.473,0,0,1-2.51,1.04l-.354,2.007A1.546,1.546,0,0,1,14.317,26.825ZM13.451,8.483a4.906,4.906,0,1,0,4.92,4.906A4.919,4.919,0,0,0,13.451,8.483Z" transform="translate(4 25.174)"/>
    <path id="Combined_Shape-2" data-name="Combined Shape" class="cls-1" d="M14.288,26.835H12.576a1.547,1.547,0,0,1-1.526-1.28L10.7,23.549a10.449,10.449,0,0,1-2.509-1.039L6.509,23.681a1.553,1.553,0,0,1-1.967-.171l-1.2-1.251A1.544,1.544,0,0,1,3.169,20.3l1.175-1.673a10.39,10.39,0,0,1-1.043-2.5l-2.017-.353A1.544,1.544,0,0,1,0,14.247v-1.7a1.544,1.544,0,0,1,1.284-1.52L3.3,10.67a10.356,10.356,0,0,1,1.043-2.5L3.164,6.5a1.544,1.544,0,0,1,.172-1.962L4.561,3.326a1.552,1.552,0,0,1,1.967-.172L8.206,4.327a10.478,10.478,0,0,1,2.51-1.04l.354-2.006A1.546,1.546,0,0,1,12.6,0h1.712a1.547,1.547,0,0,1,1.526,1.281l.345,2.006A10.485,10.485,0,0,1,18.7,4.327l1.692-1.173a1.553,1.553,0,0,1,1.968.172l1.219,1.221a1.544,1.544,0,0,1,.173,1.963L22.573,8.183a10.4,10.4,0,0,1,1.013,2.507l2.012.353a1.544,1.544,0,0,1,1.284,1.521v1.7A1.544,1.544,0,0,1,25.6,15.788l-2,.363a10.387,10.387,0,0,1-1.029,2.492l1.156,1.693a1.544,1.544,0,0,1-.172,1.962l-1.226,1.2a1.553,1.553,0,0,1-1.967.171L18.687,22.5a10.479,10.479,0,0,1-2.509,1.04l-.364,2.017A1.546,1.546,0,0,1,14.288,26.835Zm-.835-18.3a4.916,4.916,0,1,0,1.881.373A4.9,4.9,0,0,0,13.453,8.531Z" transform="translate(25 4)"/>
  </g>
</svg>
