<?xml version="1.0" encoding="utf-8"?>
<!-- Generator: Adobe Illustrator 23.0.3, SVG Export Plug-In . SVG Version: 6.00 Build 0)  -->
<svg version="1.1" id="Layer_1" xmlns="http://www.w3.org/2000/svg" xmlns:xlink="http://www.w3.org/1999/xlink" x="0px" y="0px"
	 viewBox="0 0 40 51.9" style="enable-background:new 0 0 40 51.9;" xml:space="preserve">
<style type="text/css">
	.st0{fill:#FFFFFF;}
</style>
<g id="Icon_immersive" transform="translate(-8.3 -2.067)">
	<g id="noun_interactive_37836_000000" transform="translate(8 2)">
		<path id="Shape" class="st0" d="M23.3,22.4c-1,0-1.9-0.8-1.9-1.9c0-1,0.8-1.9,1.9-1.9c1,0,1.9,0.8,1.9,1.9c0,0,0,0,0,0
			C25.2,21.6,24.4,22.4,23.3,22.4z"/>
		<path id="Shape-2" class="st0" d="M20.4,30.2h-2.5c-0.3,0-0.7-0.2-0.8-0.5l-1.3-2.2c-0.2-0.3-0.2-0.7,0-1l1.3-2.2
			c0.2-0.3,0.5-0.5,0.8-0.5h2.5c0.3,0,0.7,0.2,0.8,0.5l1.3,2.2c0.2,0.3,0.2,0.7,0,1l-1.3,2.2C21,30.1,20.7,30.2,20.4,30.2z
			 M18.4,25.9l-0.7,1.2l0.7,1.2h1.4l0.7-1.2l-0.7-1.2L18.4,25.9z"/>
		<path id="Shape-3" class="st0" d="M13,52c-0.3,0-0.5-0.1-0.7-0.3L0.6,39.9c-0.4-0.4-0.4-1,0-1.4c0.1-0.1,0.2-0.2,0.4-0.2l8.8-3V23
			c-2.7-1.7-3.5-5.3-1.8-8c0.5-0.7,1.1-1.4,1.8-1.8V8.4c0-1.9,1.5-3.4,3.4-3.4H16l-2.9-3.3c-0.3-0.4-0.3-1,0.1-1.4
			c0.4-0.3,1-0.3,1.3,0.1L18.6,5h14.9c1.9,0,3.4,1.5,3.4,3.4v14.9h2.4c0.5,0,1,0.4,1,1v9.2c0,0.5-0.4,1-1,1h-2.4v9.5
			c0,1.9-1.5,3.4-3.4,3.4H15.3l-1.4,4c-0.1,0.3-0.4,0.6-0.7,0.6C13.2,52,13.1,52,13,52z M9.8,37.4L3,39.7l9.6,9.6l0.7-1.9h-0.1
			c-1.9,0-3.4-1.5-3.4-3.4L9.8,37.4z M13.2,6.9c-0.8,0-1.5,0.7-1.5,1.5v35.5c0,0.8,0.7,1.5,1.5,1.5h20.3c0.8,0,1.5-0.7,1.5-1.5V8.4
			c0-0.8-0.7-1.5-1.5-1.5L13.2,6.9z M36.9,25.2v7.3h1.5v-7.3H36.9z M9.8,15.7c-1.1,1.4-1.1,3.3,0,4.7V15.7z"/>
		<path id="Shape-4" class="st0" d="M32.9,38.2H13.8c-0.5,0-1-0.4-1-1V10.4c0-0.5,0.4-1,1-1h19.1c0.5,0,1,0.4,1,1v26.8
			C33.9,37.7,33.4,38.2,32.9,38.2C32.9,38.2,32.9,38.2,32.9,38.2z M19.1,32.2c0.3,0,0.5,0.1,0.7,0.3c0.3,0.3,0.4,0.6,0.2,1l-0.9,2.7
			h12.9v-1.9H25c-0.5,0-1-0.4-1-1v-9.2c0-0.5,0.4-1,1-1h6.9V11.4h-7.8l6.2,7.1c0.4,0.4,0.3,1-0.1,1.4s-1,0.3-1.4-0.1c0,0,0,0,0,0
			l-7.4-8.4h-6.8v1.2c2.4,0.8,4,3,4,5.5c0,2.5-1.6,4.7-4,5.5v10.1l4-1.4C18.9,32.3,19,32.2,19.1,32.2L19.1,32.2z M14.8,35.7
			L14.8,35.7v0.6H17l0.5-1.5C17.6,34.7,14.8,35.7,14.8,35.7z M26,25.2v7.3h6v-7.3H26z M14.8,14.6v6.9c1.3-0.7,2-2,2-3.4
			C16.8,16.6,16,15.3,14.8,14.6z"/>
		<path id="Shape-5" class="st0" d="M23.3,44.3c-1.4,0-2.6-1.2-2.6-2.6c0-1.4,1.2-2.6,2.6-2.6c1.4,0,2.6,1.2,2.6,2.6
			C26,43.2,24.8,44.3,23.3,44.3z M23.3,41c-0.4,0-0.7,0.3-0.7,0.7c0,0.4,0.3,0.7,0.7,0.7c0.2,0,0.4-0.1,0.5-0.2
			c0.1-0.1,0.2-0.3,0.2-0.5C24,41.3,23.7,41,23.3,41z"/>
	</g>
</g>
</svg>
