<svg xmlns="http://www.w3.org/2000/svg" viewBox="0 0 16 11.613">
  <g id="Icon_Menu" data-name="Icon/Menu" transform="translate(-4 -6.194)">
    <g id="noun_menu_1111407_000000" transform="translate(4 6)">
      <path id="Shape" d="M15.22,11.613H.78a.774.774,0,1,1,0-1.548H15.22a.774.774,0,1,1,0,1.548Zm0-5.032H.78a.774.774,0,1,1,0-1.549H15.22a.774.774,0,1,1,0,1.549Zm0-5.033H.78A.778.778,0,0,1,0,.774.778.778,0,0,1,.78,0H15.22A.778.778,0,0,1,16,.774.778.778,0,0,1,15.22,1.548Z" transform="translate(0 0.194)"/>
    </g>
  </g>
</svg>
