<svg xmlns="http://www.w3.org/2000/svg" viewBox="0 0 42 40.095">
  <g id="Icon_scalable" data-name="Icon/scalable" transform="translate(-7 -8)">
    <g id="noun_scalable_561772_000000" transform="translate(7 8)">
      <path id="Shape" d="M39.511,40.1H23.489V38.471H21.856V20.048H1.711v-1.7H0V2.477A2.485,2.485,0,0,1,2.489,0H39.511A2.486,2.486,0,0,1,42,2.477V37.618A2.486,2.486,0,0,1,39.511,40.1Zm-37.8-21.75H23.489V38.47H39.511a.855.855,0,0,0,.856-.851V2.477a.855.855,0,0,0-.856-.851H2.489a.848.848,0,0,0-.778.851ZM2.383,40.1H0V37.623a2.476,2.476,0,0,0,2.383,2.47Zm.126-1.625h-.8v-.839a.854.854,0,0,0,.8.837Z"/>
      <path id="Path" d="M38.119,0h-.078l-1.089.31L28.786,2.4a.386.386,0,0,0-.156.619l2.722,2.709L6.075,29.879,3.586,27.093a.39.39,0,0,0-.622.155l-2.644,8.2-.311.929a.386.386,0,0,0,.082.325.39.39,0,0,0,.307.139l.856-.155,8.556-1.78a.386.386,0,0,0,.156-.619L7.086,31.04,32.441,6.813,35.4,9.832a.39.39,0,0,0,.622-.155l2.333-8.514.156-.619h0a.385.385,0,0,0-.039-.381A.39.39,0,0,0,38.119,0Z" transform="translate(1.703 1.624)"/>
    </g>
  </g>
</svg>
