<svg xmlns="http://www.w3.org/2000/svg" viewBox="0 0 39.993 51.923">
  <g id="Icon_immersive" data-name="Icon/immersive" transform="translate(-8.3 -2.067)">
    <g id="noun_interactive_37836_000000" transform="translate(8 2)">
      <path id="Shape" d="M1.867,3.733A1.867,1.867,0,1,1,3.733,1.867,1.869,1.869,0,0,1,1.867,3.733Z" transform="translate(21.479 18.665)"/>
      <path id="Shape-2" data-name="Shape" d="M4.725,6.27H2.218a.968.968,0,0,1-.834-.482L.129,3.616a.963.963,0,0,1,0-.962L1.383.482A.968.968,0,0,1,2.218,0H4.725a.968.968,0,0,1,.834.482L6.813,2.654a.96.96,0,0,1,0,.962L5.559,5.789A.968.968,0,0,1,4.725,6.27ZM2.773,1.924l-.7,1.211.7,1.21h1.4l.7-1.21-.7-1.211Z" transform="translate(15.663 23.969)"/>
      <path id="Shape-3" data-name="Shape" d="M12.747,51.923a.956.956,0,0,1-.68-.282L.282,39.857a.963.963,0,0,1,.372-1.592l8.838-3V22.907a5.823,5.823,0,0,1,0-9.857V8.339a3.419,3.419,0,0,1,3.415-3.416h2.8L12.775,1.6A.963.963,0,0,1,14.219.326l4.051,4.6H33.183A3.419,3.419,0,0,1,36.6,8.339V23.2H39.03a.965.965,0,0,1,.963.963v9.18a.964.964,0,0,1-.963.963H36.6v9.53a3.419,3.419,0,0,1-3.416,3.415H15.021l-1.363,4.018a.956.956,0,0,1-.693.628A.894.894,0,0,1,12.747,51.923ZM9.492,37.3,2.738,39.59l9.594,9.594.656-1.932h-.08a3.419,3.419,0,0,1-3.415-3.415ZM12.908,6.848a1.492,1.492,0,0,0-1.49,1.49v35.5a1.491,1.491,0,0,0,1.49,1.49H33.183a1.491,1.491,0,0,0,1.489-1.49V8.339a1.492,1.492,0,0,0-1.489-1.49ZM36.6,25.127v7.255h1.47V25.127Zm-27.105-9.5a3.888,3.888,0,0,0,0,4.713Z" transform="translate(0.3 0.067)"/>
      <path id="Shape-4" data-name="Shape" d="M20.058,28.746H.963A.964.964,0,0,1,0,27.783V.963A.964.964,0,0,1,.963,0h19.1a.964.964,0,0,1,.962.963v26.82A.964.964,0,0,1,20.058,28.746Zm-13.8-5.938a.971.971,0,0,1,.682.282.956.956,0,0,1,.231.99l-.93,2.74H19.1V24.947H12.168a.964.964,0,0,1-.963-.962V14.8a.964.964,0,0,1,.963-.962H19.1V1.925H11.341l6.248,7.091a.963.963,0,1,1-1.445,1.273L8.775,1.926H1.926V3.094A5.83,5.83,0,0,1,5.9,8.62a5.829,5.829,0,0,1-3.973,5.525V24.223l4.023-1.365A.972.972,0,0,1,6.257,22.808ZM1.925,26.255h0v.564H4.207l.513-1.512-2.795.948ZM13.131,15.768v7.255H19.1V15.768ZM1.925,5.188v6.865A3.9,3.9,0,0,0,3.973,8.62,3.906,3.906,0,0,0,1.925,5.188Z" transform="translate(12.835 9.426)"/>
      <path id="Shape-5" data-name="Shape" d="M2.62,5.241A2.62,2.62,0,1,1,5.241,2.62,2.623,2.623,0,0,1,2.62,5.241Zm0-3.317A.7.7,0,1,0,3.112,3.11a.688.688,0,0,0,.2-.49A.7.7,0,0,0,2.62,1.924Z" transform="translate(20.725 39.086)"/>
    </g>
  </g>
</svg>
