<svg id="Icon_distributed" data-name="Icon/distributed" xmlns="http://www.w3.org/2000/svg" viewBox="0 0 56 56">
  <path id="Shape" d="M14.56,56a7.84,7.84,0,0,1,0-15.68,7.755,7.755,0,0,1,3.367.77l.68-1.021,0-.005.01-.015.207-.31,1.653-2.479,1.035-1.553A10.064,10.064,0,0,1,17.921,28a9.962,9.962,0,0,1,2.212-6.283L8.683,10.267a5.615,5.615,0,1,1,1.584-1.584l11.45,11.45a10.029,10.029,0,0,1,12.568,0l5.365-5.366a7.756,7.756,0,0,1-1.57-4.686,7.84,7.84,0,1,1,7.84,7.84,7.744,7.744,0,0,1-4.687-1.57l-5.365,5.367a10.006,10.006,0,0,1,1.29,10.471l9.132,5.479A5.532,5.532,0,0,1,50.4,35.84a5.6,5.6,0,1,1-5.6,5.6,5.438,5.438,0,0,1,.339-1.85L36,34.106A10.025,10.025,0,0,1,23.38,36.948L22.345,38.5c-1.37,2.057-2.107,3.16-2.585,3.808A7.829,7.829,0,0,1,14.56,56Zm0-13.44a5.6,5.6,0,1,0,5.6,5.6A5.606,5.606,0,0,0,14.56,42.56ZM50.4,38.08a3.36,3.36,0,1,0,3.36,3.36A3.364,3.364,0,0,0,50.4,38.08ZM28,20.16A7.84,7.84,0,1,0,35.84,28,7.849,7.849,0,0,0,28,20.16ZM45.92,4.48a5.6,5.6,0,1,0,5.6,5.6A5.606,5.606,0,0,0,45.92,4.48ZM5.6,2.24A3.36,3.36,0,1,0,8.96,5.6,3.364,3.364,0,0,0,5.6,2.24Z"/>
</svg>
