<svg xmlns="http://www.w3.org/2000/svg" viewBox="0 0 52.07 55.018">
  <g id="Icon_context-aware" data-name="Icon/context-aware" transform="translate(-2 -0.491)">
    <g id="noun_Light_Bulb_1232637_000000" data-name="noun_Light Bulb_1232637_000000" transform="translate(2)">
      <path id="Shape" d="M13.784,42.791a6.126,6.126,0,0,1-6.126-6.113V26.011a13.96,13.96,0,0,1-5.522-4.958A13.514,13.514,0,0,1,0,13.755a13.784,13.784,0,0,1,27.567,0,13.514,13.514,0,0,1-2.135,7.3,13.964,13.964,0,0,1-5.523,4.958V36.679A6.126,6.126,0,0,1,13.784,42.791ZM10.72,27.139v9.54a3.063,3.063,0,0,0,6.126,0v-9.54a13.594,13.594,0,0,1-3.063.37A13.582,13.582,0,0,1,10.72,27.139ZM13.784,3.056a10.7,10.7,0,1,0,10.72,10.7A10.722,10.722,0,0,0,13.784,3.056Z" transform="translate(12.252 12.717)"/>
      <path id="Path" d="M9.189,1.528A1.53,1.53,0,0,0,7.657,0H1.531a1.528,1.528,0,1,0,0,3.057H7.657A1.53,1.53,0,0,0,9.189,1.528Z" transform="translate(0 24.943)"/>
      <path id="Path-2" data-name="Path" d="M7.657,0H1.531a1.528,1.528,0,1,0,0,3.057H7.657A1.528,1.528,0,1,0,7.657,0Z" transform="translate(42.881 24.943)"/>
      <path id="Path-3" data-name="Path" d="M0,1.528V7.641a1.531,1.531,0,0,0,3.063,0V1.528A1.531,1.531,0,0,0,0,1.528Z" transform="translate(24.504 0.491)"/>
      <path id="Path-4" data-name="Path" d="M3.268.767.205,6.061A1.532,1.532,0,0,0,2.861,7.589L5.924,2.3A1.532,1.532,0,0,0,3.268.767Z" transform="translate(33.692 3.765)"/>
      <path id="Path-5" data-name="Path" d="M7.605,3.264,2.3.208A1.53,1.53,0,1,0,.766,2.854L6.071,5.911a1.516,1.516,0,0,0,.766.2,1.528,1.528,0,0,0,.769-2.852Z" transform="translate(3.283 12.715)"/>
      <path id="Path-6" data-name="Path" d="M7.6,3.266,2.3.21A1.529,1.529,0,1,0,.766,2.857l5.3,3.057a1.516,1.516,0,0,0,.766.2A1.527,1.527,0,0,0,7.6,3.266Z" transform="translate(40.425 34.108)"/>
      <path id="Path-7" data-name="Path" d="M.766.21A1.523,1.523,0,0,0,.205,2.294L3.268,7.588A1.537,1.537,0,0,0,4.6,8.352,1.526,1.526,0,0,0,5.921,6.063L2.858.769A1.525,1.525,0,0,0,.766.21Z" transform="translate(12.252 3.766)"/>
      <path id="Path-8" data-name="Path" d="M6.072.208.767,3.264a1.528,1.528,0,0,0,.769,2.852,1.516,1.516,0,0,0,.766-.2L7.607,2.854A1.53,1.53,0,1,0,6.072.208Z" transform="translate(3.282 34.113)"/>
      <path id="Path-9" data-name="Path" d="M1.535,6.114a1.516,1.516,0,0,0,.766-.2L7.605,2.853A1.53,1.53,0,0,0,6.071.206L.766,3.263a1.528,1.528,0,0,0,.769,2.852Z" transform="translate(40.419 12.719)"/>
    </g>
  </g>
</svg>
