<?xml version="1.0" encoding="utf-8"?>
<!-- Generator: Adobe Illustrator 23.0.3, SVG Export Plug-In . SVG Version: 6.00 Build 0)  -->
<svg version="1.1" id="Icon_distributed" xmlns="http://www.w3.org/2000/svg" xmlns:xlink="http://www.w3.org/1999/xlink" x="0px"
	 y="0px" viewBox="0 0 56 56" style="enable-background:new 0 0 56 56;" xml:space="preserve">
<style type="text/css">
	.st0{fill:#FFFFFF;}
</style>
<path id="Shape" class="st0" d="M14.6,56c-4.3,0-7.8-3.5-7.8-7.8c0-4.3,3.5-7.8,7.8-7.8c1.2,0,2.3,0.3,3.4,0.8l0.7-1v0l0,0l0.2-0.3
	l1.7-2.5l1-1.6c-2.3-1.9-3.6-4.7-3.6-7.7c0-2.3,0.8-4.5,2.2-6.3L8.7,10.3c-2.6,1.7-6.1,1-7.8-1.6s-1-6.1,1.6-7.8s6.1-1,7.8,1.6
	c1.2,1.9,1.2,4.3,0,6.2l11.4,11.4c3.7-3,8.9-3,12.6,0l5.4-5.4c-1-1.3-1.6-3-1.6-4.7c0-4.3,3.5-7.8,7.8-7.8s7.8,3.5,7.8,7.8
	s-3.5,7.8-7.8,7.8l0,0c-1.7,0-3.3-0.5-4.7-1.6l-5.4,5.4c2.4,3,2.9,7,1.3,10.5l9.1,5.5c1-1.2,2.5-1.8,4.1-1.8c3.1,0,5.6,2.5,5.6,5.6
	c0,3.1-2.5,5.6-5.6,5.6c-3.1,0-5.6-2.5-5.6-5.6l0,0c0-0.6,0.1-1.3,0.3-1.8L36,34.1c-3,3.9-8.3,5.1-12.6,2.8l-1,1.6
	c-1.4,2.1-2.1,3.2-2.6,3.8c3.2,2.9,3.5,7.8,0.7,11.1C18.9,55,16.8,56,14.6,56z M14.6,42.6c-3.1,0-5.6,2.5-5.6,5.6
	c0,3.1,2.5,5.6,5.6,5.6s5.6-2.5,5.6-5.6l0,0C20.2,45.1,17.7,42.6,14.6,42.6z M50.4,38.1c-1.9,0-3.4,1.5-3.4,3.4
	c0,1.9,1.5,3.4,3.4,3.4c1.9,0,3.4-1.5,3.4-3.4C53.8,39.6,52.3,38.1,50.4,38.1z M28,20.2c-4.3,0-7.8,3.5-7.8,7.8s3.5,7.8,7.8,7.8
	s7.8-3.5,7.8-7.8l0,0C35.8,23.7,32.3,20.2,28,20.2z M45.9,4.5c-3.1,0-5.6,2.5-5.6,5.6s2.5,5.6,5.6,5.6c3.1,0,5.6-2.5,5.6-5.6
	c0,0,0,0,0,0C51.5,7,49,4.5,45.9,4.5z M5.6,2.2c-1.9,0-3.4,1.5-3.4,3.4S3.7,9,5.6,9S9,7.5,9,5.6C9,3.7,7.5,2.2,5.6,2.2z"/>
</svg>
