<?xml version="1.0" encoding="UTF-8"?>
<svg width="56px" height="56px" viewBox="0 0 56 56" version="1.1" xmlns="http://www.w3.org/2000/svg" xmlns:xlink="http://www.w3.org/1999/xlink">
  <!-- Generator: Sketch 52.2 (67145) - http://www.bohemiancoding.com/sketch -->
  <title>Icon/context-aware</title>
  <desc>Created with Sketch.</desc>
  <g id="Icon/context-aware" stroke="none" stroke-width="1" fill="none" fill-rule="evenodd">
    <g id="noun_Light-Bulb_1232637_000000" transform="translate(2.000000, 0.000000)" fill="#000000">
      <path d="M26.0350877,12.7173489 C18.4359051,12.7173489 12.251806,18.8884834 12.251806,26.4717349 C12.251806,31.8512281 15.3913313,36.4696452 19.9091847,38.7284211 L19.9091847,49.3957115 C19.9091847,52.7670643 22.6566522,55.5087719 26.0350877,55.5087719 C29.4135232,55.5087719 32.1609907,52.7670643 32.1609907,49.3957115 L32.1609907,38.7284211 C36.6788442,36.4696452 39.8183695,31.8512281 39.8183695,26.4717349 C39.8183695,18.8884834 33.6342704,12.7173489 26.0350877,12.7173489 Z M29.0980392,49.3957115 C29.0980392,51.0829162 27.722774,52.4522417 26.0350877,52.4522417 C24.3474014,52.4522417 22.9721362,51.0829162 22.9721362,49.3957115 L22.9721362,39.8562807 C23.9614696,40.0824639 24.9783695,40.2261209 26.0350877,40.2261209 C27.091806,40.2261209 28.1087059,40.0824639 29.0980392,39.8562807 L29.0980392,49.3957115 Z M26.0350877,37.1695906 C20.1235913,37.1695906 15.3147575,32.3708382 15.3147575,26.4717349 C15.3147575,20.5726316 20.1235913,15.7738791 26.0350877,15.7738791 C31.9465841,15.7738791 36.755418,20.5726316 36.755418,26.4717349 C36.755418,32.3708382 31.9465841,37.1695906 26.0350877,37.1695906 Z" id="Shape" fill-rule="nonzero"></path>
      <path d="M9.18885449,26.4717349 C9.18885449,25.6281326 8.50275335,24.9434698 7.65737874,24.9434698 L1.53147575,24.9434698 C0.686101135,24.9434698 0,25.6281326 0,26.4717349 C0,27.3153372 0.686101135,28 1.53147575,28 L7.65737874,28 C8.50275335,28 9.18885449,27.3153372 9.18885449,26.4717349 Z" id="Path"></path>
      <path d="M50.5386997,24.9434698 L44.4127967,24.9434698 C43.5674221,24.9434698 42.8813209,25.6281326 42.8813209,26.4717349 C42.8813209,27.3153372 43.5674221,28 44.4127967,28 L50.5386997,28 C51.3840743,28 52.0701754,27.3153372 52.0701754,26.4717349 C52.0701754,25.6281326 51.3840743,24.9434698 50.5386997,24.9434698 Z" id="Path"></path>
      <path d="M24.503612,2.01949318 L24.503612,8.13255361 C24.503612,8.97615595 25.1897131,9.66081871 26.0350877,9.66081871 C26.8804623,9.66081871 27.5665635,8.97615595 27.5665635,8.13255361 L27.5665635,2.01949318 C27.5665635,1.17589084 26.8804623,0.49122807 26.0350877,0.49122807 C25.1897131,0.49122807 24.503612,1.17589084 24.503612,2.01949318 Z" id="Path"></path>
      <path d="M36.9606357,4.53196101 L33.8976842,9.82587135 C33.4749969,10.5594386 33.7261589,11.4947368 34.4582043,11.9134815 C34.7001775,12.0540819 34.9635913,12.118269 35.2239422,12.118269 C35.7538328,12.118269 36.2684087,11.8431813 36.5532632,11.3541365 L39.6162147,6.06022612 C40.038902,5.3297154 39.7877399,4.39441715 39.0556945,3.97261598 C38.3175232,3.54470175 37.383323,3.80145029 36.9606357,4.53196101 Z" id="Path"></path>
      <path d="M10.8887926,15.9786667 L5.58376058,12.9221365 C4.84865222,12.4942222 3.91445201,12.7509708 3.48870175,13.4814815 C3.06601445,14.2119922 3.31717647,15.1472904 4.04922188,15.5690916 L9.35425387,18.6256218 C9.59622704,18.7662222 9.85964087,18.8304094 10.1199917,18.8304094 C10.6498824,18.8304094 11.1644582,18.5553216 11.4493127,18.0662768 C11.872,17.3357661 11.620838,16.4004678 10.8887926,15.9786667 Z" id="Path"></path>
      <path d="M48.0240165,37.3743782 L42.7220475,34.317848 C41.9869391,33.8868772 41.0527389,34.1436257 40.6300516,34.877193 C40.2073643,35.6077037 40.4585263,36.5430019 41.1905717,36.9648031 L46.4925408,40.0213333 C46.7345139,40.1619337 46.9979278,40.2261209 47.2582786,40.2261209 C47.7881692,40.2261209 48.3027451,39.9510331 48.5875996,39.4619883 C49.0072239,38.7314776 48.7560619,37.7961793 48.0240165,37.3743782 Z" id="Path"></path>
      <path d="M13.0175439,3.97567251 C12.2854985,4.39441715 12.0343364,5.3297154 12.4570237,6.06022612 L15.5199752,11.3541365 C15.8048297,11.8431813 16.3194056,12.118269 16.8492962,12.118269 C17.1096471,12.118269 17.3730609,12.0540819 17.6150341,11.9134815 C18.3440165,11.4947368 18.5951785,10.5594386 18.1724912,9.82892788 L15.1095397,4.53501754 C14.6837895,3.80145029 13.7465263,3.54470175 13.0175439,3.97567251 Z" id="Path"></path>
      <path d="M9.35425387,34.3209045 L4.04922188,37.3774347 C3.31717647,37.7992359 3.0629515,38.7345341 3.48870175,39.4650448 C3.77355624,39.9540897 4.28813209,40.2291774 4.8180227,40.2291774 C5.07837358,40.2291774 5.34178741,40.1649903 5.58376058,40.0243899 L10.8887926,36.9678596 C11.620838,36.5460585 11.872,35.6138168 11.4493127,34.8802495 C11.0204995,34.1497388 10.0801734,33.8929903 9.35425387,34.3209045 Z" id="Path"></path>
      <path d="M41.9532466,18.8334659 C42.2135975,18.8334659 42.4770114,18.7692788 42.7189845,18.6286784 L48.0240165,15.5721481 C48.752999,15.150347 49.0072239,14.2150487 48.5814737,13.484538 C48.1557234,12.7540273 47.2153973,12.5003353 46.4894778,12.925193 L41.1844458,15.9817232 C40.4524004,16.4035244 40.2012384,17.3357661 40.6239257,18.0693333 C40.9087802,18.5583782 41.423356,18.8334659 41.9532466,18.8334659 Z" id="Path"></path>
    </g>
  </g>
</svg>