<?xml version="1.0" encoding="utf-8"?>
<!-- Generator: Adobe Illustrator 23.0.3, SVG Export Plug-In . SVG Version: 6.00 Build 0)  -->
<svg version="1.1" id="Layer_1" xmlns="http://www.w3.org/2000/svg" xmlns:xlink="http://www.w3.org/1999/xlink" x="0px" y="0px"
	 viewBox="0 0 55.3 53" style="enable-background:new 0 0 55.3 53;" xml:space="preserve">
<style type="text/css">
	.st0{fill:#FFFFFF;}
</style>
<g id="Icon_adaptable" transform="translate(-0.002 -2)">
	<g id="noun_adapt_944796_000000" transform="translate(0 2)">
		<path id="Path" class="st0" d="M54.2,25.4H51v-5.3c0-0.6-0.5-1.1-1.1-1.1c-0.2,0-0.4,0.1-0.6,0.2l-9.6,6.4c-0.5,0.3-0.6,1-0.3,1.5
			c0.1,0.1,0.2,0.2,0.3,0.3l9.6,6.4c0.5,0.3,1.1,0.2,1.5-0.3c0.1-0.2,0.2-0.4,0.2-0.6v-5.3h3.2c0.6,0,1.1-0.5,1.1-1.1
			C55.3,25.9,54.8,25.4,54.2,25.4C54.2,25.4,54.2,25.4,54.2,25.4z"/>
		<path id="Path-2" class="st0" d="M27.6,0c-0.6,0-1.1,0.5-1.1,1.1v50.9c0,0.6,0.5,1.1,1.1,1.1s1.1-0.5,1.1-1.1V1.1
			C28.7,0.5,28.2,0,27.6,0z"/>
		<path id="Path-3" class="st0" d="M15.9,26.5c0-0.4-0.2-0.7-0.5-0.9l-9.6-6.4c-0.5-0.3-1.1-0.2-1.5,0.3c-0.1,0.2-0.2,0.4-0.2,0.6
			v5.3H1.1c-0.6,0-1.1,0.5-1.1,1.1c0,0.6,0.5,1.1,1.1,1.1c0,0,0,0,0,0h3.2v5.3c0,0.6,0.5,1.1,1.1,1.1c0,0,0,0,0,0
			c0.2,0,0.4-0.1,0.6-0.2l9.6-6.4C15.8,27.2,15.9,26.9,15.9,26.5z"/>
		<path id="Path-4" class="st0" d="M35.1,26.5c0-10.3,6.2-24.9,6.3-25c0.2-0.5,0-1.2-0.6-1.4c-0.5-0.2-1.2,0-1.4,0.6
			C39.2,1.3,33,15.8,33,26.5s6.2,25.2,6.5,25.9c0.2,0.4,0.6,0.6,1,0.6c0.1,0,0.3,0,0.4-0.1c0.5-0.2,0.8-0.8,0.6-1.4c0,0,0,0,0,0
			C41.3,51.4,35.1,36.8,35.1,26.5z"/>
		<path id="Path-5" class="st0" d="M14.5,0.1c-0.5,0.2-0.8,0.9-0.6,1.4c0,0,0,0,0,0c0.1,0.1,6.3,14.8,6.3,25s-6.2,24.9-6.3,25
			c-0.2,0.5,0,1.2,0.6,1.4c0,0,0,0,0,0c0.1,0.1,0.3,0.1,0.4,0.1c0.4,0,0.8-0.3,1-0.6c0.3-0.6,6.5-15.2,6.5-25.9S16.1,1.3,15.9,0.6
			C15.6,0.1,15-0.1,14.5,0.1z"/>
	</g>
</g>
</svg>
