<svg xmlns="http://www.w3.org/2000/svg" viewBox="0 0 55.277 53">
  <g id="Icon_adaptable" data-name="Icon/adaptable" transform="translate(-0.002 -2)">
    <g id="noun_adapt_944796_000000" transform="translate(0 2)">
      <path id="Path" d="M14.883,6.36H11.694V1.06A1.062,1.062,0,0,0,10.042.178L.474,6.538a1.058,1.058,0,0,0,0,1.764l9.567,6.36a1.063,1.063,0,0,0,1.653-.882V8.48h3.189a1.06,1.06,0,1,0,0-2.12Z" transform="translate(39.333 19.08)"/>
      <path id="Path-2" data-name="Path" d="M1.063,0A1.062,1.062,0,0,0,0,1.06V51.94a1.063,1.063,0,0,0,2.126,0V1.06A1.062,1.062,0,0,0,1.063,0Z" transform="translate(26.576)"/>
      <path id="Path-3" data-name="Path" d="M15.945,7.42a1.061,1.061,0,0,0-.473-.882L5.9.178a1.062,1.062,0,0,0-1.652.882v5.3H1.063a1.06,1.06,0,1,0,0,2.12H4.252v5.3a1.061,1.061,0,0,0,1.062,1.06,1.072,1.072,0,0,0,.59-.178L15.472,8.3A1.061,1.061,0,0,0,15.945,7.42Z" transform="translate(0.002 19.08)"/>
      <path id="Path-4" data-name="Path" d="M2.126,26.5c0-10.257,6.229-24.876,6.292-25.022A1.062,1.062,0,0,0,6.465.642C6.2,1.257,0,15.806,0,26.5S6.2,51.743,6.464,52.358A1.062,1.062,0,0,0,7.441,53a1.044,1.044,0,0,0,.419-.086,1.057,1.057,0,0,0,.558-1.391C8.356,51.376,2.126,36.757,2.126,26.5Z" transform="translate(32.955 0)"/>
      <path id="Path-5" data-name="Path" d="M.644.086A1.059,1.059,0,0,0,.086,1.478C.149,1.624,6.379,16.244,6.379,26.5S.149,51.376.086,51.523a1.057,1.057,0,0,0,.558,1.391A1.031,1.031,0,0,0,1.063,53a1.062,1.062,0,0,0,.977-.642C2.3,51.743,8.5,37.195,8.5,26.5S2.3,1.257,2.04.643A1.063,1.063,0,0,0,.644.086Z" transform="translate(13.819 0)"/>
    </g>
  </g>
</svg>
