<?xml version="1.0" encoding="utf-8"?>
<!-- Generator: Adobe Illustrator 23.0.3, SVG Export Plug-In . SVG Version: 6.00 Build 0)  -->
<svg version="1.1" id="Layer_1" xmlns="http://www.w3.org/2000/svg" xmlns:xlink="http://www.w3.org/1999/xlink" x="0px" y="0px"
	 viewBox="0 0 50.3 41.3" style="enable-background:new 0 0 50.3 41.3;" xml:space="preserve">
<style type="text/css">
	.st0{fill:#FFFFFF;}
</style>
<g id="Icon_natural" transform="translate(-2.407 -7.058)">
	<g id="noun_interactivity_328011_000000" transform="translate(2 7)">
		<path id="Shape" class="st0" d="M25.7,41.4c-8.1,0-14.6-6.6-14.6-14.6c0-1.1,0.1-2.1,0.3-3.1h-11V0.1h23.5v12.1l0.2,0
			c0.5-0.1,1.1-0.1,1.7-0.1c2.8,0,5.6,0.8,7.9,2.3c2.3,1.5,4.1,3.6,5.3,6l11.7-6.8V41l-12.3-7C35.9,38.6,31,41.4,25.7,41.4
			L25.7,41.4z M13.9,23.6c-0.3,1-0.4,2.1-0.4,3.1c0,6.8,5.5,12.2,12.2,12.2c4.4,0,8.4-2.4,10.6-6.2L27,27.4l9.8-5.8
			c-2-4.4-6.3-7.1-11.1-7.1c-0.6,0-1.2,0-1.9,0.1v8.9L13.9,23.6z M37.7,24.1L32,27.4l5.5,3.1c0-0.1,0.1-0.3,0.1-0.4s0.1-0.3,0.1-0.4
			v-0.1c0.2-0.6,0.2-1.1,0.3-1.7v0v-0.2c0-0.3,0-0.6-0.1-0.9v-1.3c0-0.1,0-0.1,0-0.2v0v0v0v0c0-0.1,0-0.1,0-0.2v-0.2
			c0-0.2,0-0.3-0.1-0.5v-0.2C37.7,24.2,37.6,24.1,37.7,24.1z M21.4,8L21.4,8L8,21.1h4.2c0.8-2,2.1-3.7,3.6-5.2
			c1.6-1.4,3.5-2.5,5.5-3.2l0.1-0.1L21.4,8L21.4,8z M18.7,2.5L18.7,2.5L2.8,18.2v2.8h1.6l17-16.6v-2H18.7z M10.5,2.5L10.5,2.5
			l-7.7,7.7v4.6L15.2,2.5H10.5z M2.8,2.5v4.2l4.2-4.2H2.8z"/>
	</g>
</g>
</svg>
