<?xml version="1.0" encoding="UTF-8"?>
<svg width="28px" height="28px" viewBox="0 0 28 28" version="1.1" xmlns="http://www.w3.org/2000/svg" xmlns:xlink="http://www.w3.org/1999/xlink">
    <!-- Generator: Sketch 52.2 (67145) - http://www.bohemiancoding.com/sketch -->
    <title>Social-twitter</title>
    <desc>Created with Sketch.</desc>
    <g id="Social-twitter" stroke="none" stroke-width="1" fill="none" fill-rule="evenodd">
        <path d="M8.79551821,25.767507 C19.3613445,25.767507 25.1428571,17.0056022 25.1428571,9.42016807 C25.1428571,9.17366947 25.1428571,8.92717087 25.1316527,8.68067227 C26.2521008,7.87394958 27.2268908,6.85434174 28,5.70028011 C26.9691877,6.15966387 25.859944,6.46218487 24.6946779,6.60784314 C25.8823529,5.90196078 26.789916,4.77030812 27.2268908,3.42577031 C26.1176471,4.08683473 24.8851541,4.55742297 23.5742297,4.81512605 C22.5210084,3.69467787 21.0308123,3 19.3837535,3 C16.2128852,3 13.6358543,5.57703081 13.6358543,8.74789916 C13.6358543,9.19607843 13.6918768,9.63305322 13.7815126,10.0588235 C9.00840336,9.82352941 4.77310924,7.52661064 1.93837535,4.05322129 C1.44537815,4.9047619 1.16526611,5.8907563 1.16526611,6.94397759 C1.16526611,8.93837535 2.18487395,10.697479 3.71988796,11.7282913 C2.77871148,11.6946779 1.89355742,11.4369748 1.12044818,11.0112045 C1.12044818,11.0336134 1.12044818,11.0560224 1.12044818,11.0896359 C1.12044818,13.8683473 3.10364146,16.1988796 5.7254902,16.7254902 C5.24369748,16.859944 4.7394958,16.9271709 4.21288515,16.9271709 C3.84313725,16.9271709 3.48459384,16.8935574 3.1372549,16.8263305 C3.86554622,19.1120448 5.99439776,20.7703081 8.50420168,20.8151261 C6.53221289,22.3613445 4.05602241,23.280112 1.36694678,23.280112 C0.907563025,23.280112 0.448179272,23.2577031 0,23.2016807 C2.53221289,24.8151261 5.55742297,25.767507 8.79551821,25.767507" id="Path" fill="#032225"></path>
    </g>
</svg>