<?xml version="1.0" encoding="UTF-8"?>
<svg width="28px" height="28px" viewBox="0 0 28 28" version="1.1" xmlns="http://www.w3.org/2000/svg" xmlns:xlink="http://www.w3.org/1999/xlink">
    <!-- Generator: Sketch 52.2 (67145) - http://www.bohemiancoding.com/sketch -->
    <title>Social-linkedin</title>
    <desc>Created with Sketch.</desc>
    <g id="Social-linkedin" stroke="none" stroke-width="1" fill="none" fill-rule="evenodd">
        <path d="M22.450716,22.4508826 L18.893432,22.4508826 L18.893432,16.8811267 C18.893432,15.5523118 18.869099,13.8440022 17.0437911,13.8440022 C15.1913168,13.8440022 14.9076541,15.2909821 14.9076541,16.7849613 L14.9076541,22.4508826 L11.3505368,22.4508826 L11.3505368,10.9975417 L14.7653227,10.9975417 L14.7653227,12.5623533 L14.8126554,12.5623533 C15.2876488,11.6620325 16.4487993,10.7125457 18.1806086,10.7125457 C21.7852252,10.7125457 22.450716,13.0846794 22.450716,16.1684699 L22.450716,22.4508826 Z M7.33892585,9.43189678 C6.1979417,9.43189678 5.27445452,8.50674296 5.27445452,7.36742545 C5.27445452,6.22894126 6.1979417,5.30412078 7.33892585,5.30412078 C8.47691004,5.30412078 9.40173053,6.22894126 9.40173053,7.36742545 C9.40173053,8.50674296 8.47691004,9.43189678 7.33892585,9.43189678 Z M5.55828391,22.4508826 L9.1180678,22.4508826 L9.1180678,10.9975417 L5.55828391,10.9975417 L5.55828391,22.4508826 Z M3.7714754,2 C2.79415564,2 2,2.77465591 2,3.72980931 L2,24.2678574 C2,25.2238441 2.79415564,25.9996667 3.7714754,25.9996667 L24.2235247,25.9996667 C25.2025111,25.9996667 26,25.2238441 26,24.2678574 L26,3.72980931 C26,2.77465591 25.2025111,2 24.2235247,2 L3.7714754,2 Z" id="Fill-1" fill="#032225"></path>
    </g>
</svg>