<?xml version="1.0" encoding="UTF-8"?>
<svg width="28px" height="28px" viewBox="0 0 28 28" version="1.1" xmlns="http://www.w3.org/2000/svg" xmlns:xlink="http://www.w3.org/1999/xlink">
    <!-- Generator: Sketch 52.2 (67145) - http://www.bohemiancoding.com/sketch -->
    <title>Social-youtube</title>
    <desc>Created with Sketch.</desc>
    <g id="Social-youtube" stroke="none" stroke-width="1" fill="none" fill-rule="evenodd">
        <path d="M27.299082,7.26796721 C27.8818033,9.44255738 27.8818033,13.9790164 27.8818033,13.9790164 C27.8818033,13.9790164 27.8818033,18.5157049 27.299082,20.6900656 C26.978459,21.8894754 26.0338033,22.8345902 24.8341639,23.1549836 C22.6598033,23.7377049 13.9407869,23.7377049 13.9407869,23.7377049 C13.9407869,23.7377049 5.222,23.7377049 3.04763934,23.1549836 C1.848,22.8345902 0.903344262,21.8894754 0.582721311,20.6900656 C0,18.5157049 0,13.9790164 0,13.9790164 C0,13.9790164 0,9.44255738 0.582721311,7.26796721 C0.903344262,6.06855738 1.848,5.12367213 3.04763934,4.80304918 C5.222,4.22055738 13.9407869,4.22055738 13.9407869,4.22055738 C13.9407869,4.22055738 22.6598033,4.22055738 24.8341639,4.80304918 C26.0338033,5.12367213 26.978459,6.06855738 27.299082,7.26796721 Z M11.1527213,18.1613443 L18.3962295,13.9792459 L11.1527213,9.79668852 L11.1527213,18.1613443 Z" id="Combined-Shape" fill="#032225"></path>
    </g>
</svg>