<?xml version="1.0" encoding="utf-8"?>
<!-- Generator: Adobe Illustrator 23.0.1, SVG Export Plug-In . SVG Version: 6.00 Build 0)  -->
<svg version="1.1" id="Layer_1" xmlns="http://www.w3.org/2000/svg" xmlns:xlink="http://www.w3.org/1999/xlink" x="0px" y="0px"
	 viewBox="0 0 1351.4 579.2" style="enable-background:new 0 0 1351.4 579.2;" xml:space="preserve">
<style type="text/css">
	.st0{fill:none;}
	.st1{font-family:'Roboto-Bold';}
	.st2{font-size:157px;}
	.st3{font-family:'Roboto-Regular';}
	.st4{font-size:34px;}
</style>
<g>
	<g>
		<path d="M257.8,135.4c-1.4-2.3-2.8-4.7-4.2-7c-0.2-0.3-0.3-0.6-0.5-0.9c0.2-0.3,0.4-0.6,0.5-0.9c1.4-2.3,2.7-4.6,4.1-6.8
			c0.4-0.6,0.4-1.1,0.2-1.8c-2.9-10.5-5.8-21-8.7-31.4c-0.1-0.3-0.2-0.6-0.3-0.9c-0.3,0.1-0.5,0.1-0.7,0.1
			c-10.9,2.8-21.8,5.7-32.7,8.5c-0.6,0.2-1,0.4-1.3,1c-1.4,2.4-2.8,4.7-4.1,7.1c-0.3,0.6-0.7,0.9-1.5,0.9c-2.8-0.1-5.7,0-8.5-0.1
			c-0.6,0-1,0.2-1.4,0.6c-7.9,7.7-15.9,15.5-23.8,23.2l-0.2,1.1c8,7.8,16,15.6,24.1,23.4c0.4,0.4,0.9,0.5,1.4,0.5
			c2.8,0,5.7,0,8.5-0.1c0.7,0,1,0.2,1.3,0.8c1.3,2.3,2.7,4.6,4,6.9c0.4,0.8,1,1.1,1.8,1.4c8,2.1,15.9,4.1,23.9,6.2
			c3,0.8,6,1.5,9.1,2.4c0.1-0.3,0.2-0.6,0.3-0.8c2.9-10.6,5.8-21.2,8.7-31.7C258.2,136.3,258.1,135.9,257.8,135.4z M192.3,122.7
			c5.9-5.9,11.8-11.8,17.8-17.6c0.3-0.3,0.7-0.5,1.2-0.7c8.1-2.1,16.3-4.1,24.5-6.1c0.3-0.1,0.5-0.1,0.9-0.1c-0.2,0.4-0.4,0.7-0.6,1
			c-4.6,7.8-9.2,15.5-13.8,23.3c-0.4,0.7-0.8,0.9-1.6,0.9c-9.2,0-18.4,0-27.7,0c-0.3,0-0.6,0-1.1,0
			C192.1,123.1,192.2,122.9,192.3,122.7z M231.7,155.7c-6.7-1.7-13.4-3.4-20.1-5c-0.7-0.2-1.3-0.5-1.9-1.1
			c-5.7-5.7-11.4-11.4-17.2-17.1c-0.2-0.2-0.5-0.5-0.8-0.9c0.5,0,0.8-0.1,1-0.1c9.3,0,18.6,0,27.9,0c0.7,0,1.1,0.2,1.4,0.8
			c4.7,7.9,9.4,15.8,14,23.7c0.1,0.2,0.2,0.4,0.4,0.8C234.9,156.5,233.3,156.1,231.7,155.7z M251.1,128.2c-2.3,8-4.6,16-6.9,24.1
			c0,0.1-0.1,0.2-0.2,0.6c-5.1-8.5-10-16.9-15-25.3c5-8.4,9.9-16.7,14.9-25.2c0.2,0.4,0.3,0.6,0.3,0.8c2.3,7.9,4.6,15.8,6.8,23.8
			C251.2,127.2,251.3,127.7,251.1,128.2z"/>
		<path d="M373.6,111.2c2.9,0,5.7,0,8.7,0c2.6,7.4,5.7,14.6,7.7,22.3c1.9-7.6,4.7-14.8,6.9-22.3c2.9,0,5.7,0,8.7,0
			c-0.1,0.3-0.1,0.6-0.2,0.8c-4,11.5-7.9,23-11.9,34.5c-0.4,1.3-1,2.5-1.6,3.8c-1.6,3.2-4.1,5.1-7.8,5.3c-2.3,0.1-4.7,0.1-7.1,0.2
			c-0.1-2.4-0.1-4.6,0-7c0.4,0,0.8,0,1.2-0.1c1,0,2,0,3-0.1c2.4-0.2,3.8-1.7,3.8-4.1c0-1.2-0.2-2.4-0.5-3.5c-1.2-3.5-2.4-7-3.7-10.5
			c-2.3-6-4.6-12.1-6.8-18.1C373.9,112.1,373.8,111.7,373.6,111.2z"/>
		<path d="M308.6,111.2c2.6,0,5.2,0,7.9,0c0,1.5,0,2.9,0,4.4c0.5-0.1,0.6-0.5,0.8-0.7c1.6-2.2,3.7-3.7,6.4-4.3
			c2.4-0.5,4.8-0.5,7.2,0.4c3.8,1.4,6,4.2,6.9,8c0.3,1.1,0.4,2.4,0.4,3.5c0,7.1,0,14.2,0,21.3c0,0.3,0,0.5-0.1,0.9
			c-2.7,0-5.3,0-8.1,0c0-0.4,0-0.9,0-1.3c0-6.3,0-12.6,0-18.8c0-0.6,0-1.2-0.1-1.8c-0.5-2.6-2.5-4.4-5.2-4.7
			c-4.9-0.6-7.3,2.8-7.8,5.8c-0.1,0.8-0.2,1.5-0.2,2.3c0,5.8,0,11.5,0,17.3c0,0.4,0,0.8,0,1.2c-2.7,0-5.4,0-8,0
			C308.5,143.9,308.4,113.1,308.6,111.2z"/>
		<path d="M296.1,111.2c2.8,0,5.4,0,8,0c0.2,0.8,0.4,30.8,0.1,33.3c-0.7,0.2-6.5,0.3-7.8,0.1c0-1.2,0-2.4,0-3.8
			c-0.3,0.3-0.5,0.5-0.7,0.7c-2.7,3.5-6.4,4.6-10.7,4.2c-0.8-0.1-1.6-0.2-2.4-0.4c-4.3-1.3-6.7-4.3-7.5-8.6
			c-0.2-0.9-0.2-1.9-0.2-2.8c0-7.2,0-14.3,0-21.5c0-0.3,0-0.6,0.1-1c2.7,0,5.4,0,8.1,0c0,0.4,0,0.9,0,1.3c0,6.4,0,12.8,0,19.2
			c0,0.6,0,1.2,0.1,1.8c0.5,2.7,2.4,4.4,5.2,4.6c4.3,0.3,7.2-2.3,7.5-6.8c0-0.5,0-1.1,0-1.6c0-5.8,0-11.5,0-17.3
			C296.1,112.1,296.1,111.7,296.1,111.2z"/>
		<path d="M353.2,111.2c1.5,0,3,0,4.6,0c0-3.5,0-6.9,0-10.4c2.8,0,5.4,0,8.2,0c0,3.4,0,6.8,0,10.3c1.8,0,3.4,0,5.2,0
			c0,2,0,3.9,0,5.9c-1.7,0-3.3,0-5.1,0c0,0.4-0.1,0.6-0.1,0.9c0,5.6,0,11.2,0,16.8c0,0.4,0,0.8,0.1,1.2c0.3,1.2,1,1.9,2.2,2.1
			c0.5,0.1,1,0.1,1.6,0.1c0.4,0,0.9,0,1.4,0c0,2.2,0,4.3,0,6.4c-0.1,0.1-0.2,0.1-0.3,0.1c-2.3,0.2-4.7,0.3-7-0.2
			c-4-0.9-6.1-3.4-6.2-7.5c0-1.3,0-2.5,0-3.8c0-4.9,0-9.9,0-14.8c0-0.4,0-0.8,0-1.3c-1.6,0-3,0-4.6,0
			C353.2,115.1,353.2,113.2,353.2,111.2z"/>
		<path d="M350.6,144.7c-2.7,0-5.3,0-7.9,0c-0.2-0.8-0.3-32-0.1-33.5c2.6-0.1,5.3,0,7.9,0C350.7,112,350.8,143.2,350.6,144.7z"/>
		<path d="M342.6,100.8c2.7,0,5.3,0,8.1,0c0,2.2,0,4.4,0,6.6c-2.7,0-5.3,0-8.1,0C342.6,105.2,342.6,103,342.6,100.8z"/>
	</g>
	<rect x="174.9" y="248" class="st0" width="1001.6" height="127.1"/>
	<text transform="matrix(1 0 0 1 174.8784 365.7439)" class="st1 st2">Visual Search</text>
	<rect x="180.9" y="458.4" class="st0" width="995.6" height="35.2"/>
	<text transform="matrix(1 0 0 1 180.8832 483.8617)"><tspan x="0" y="0" class="st3 st4">Powered by </tspan><tspan x="185.1" y="0" class="st1 st4">Resonai</tspan></text>
</g>
</svg>
